<svg id="Logo_Life_Fitness" data-name="Logo Life Fitness" xmlns="http://www.w3.org/2000/svg" xmlns:xlink="http://www.w3.org/1999/xlink" width="240" height="40" viewBox="0 0 240 40">
  <path id="Path_1983" data-name="Path 1983" d="M64.459,36.3c1.552,3.367.962,3.037-1.164,2.439-23.937-6.728-43.341-6.616-52.06-4.987a35.89,35.89,0,0,1-5.723,3.54c-2.84,1.361-2.9,1.3-4.619-1.219-1.25-1.85-1.168-2.09.116-3.013a23.024,23.024,0,0,1,8.485-3.136C24.831,15.3,39.9,4.779,45.049,1.844,48.754-.264,49.8.015,53.3.8c4.3.957,4.054,1.706,1.628,3.479-1.6,1.179-3.018,2.132-4.764,3.252-2.371,1.517-2.331,1.341-5.947,1.278-9.527,5.684-17.063,12.06-26.71,20.072a121.2,121.2,0,0,1,20.455.063,11.307,11.307,0,0,1-.538-1.516c-.956-2.955-.944-2.576.088-3.737A120.912,120.912,0,0,1,49.365,12.465c1.658-1.308,2.269-2.1,3.922.779,1.5,2.6,1.48,2.874-.26,4.266S42.305,26.386,40.3,28.644a5.786,5.786,0,0,1-.456.462A133.79,133.79,0,0,1,59,32.245c4.151,1.013,3.979.84,5.459,4.058M55.268,9.04c.111,2.549.342,2.549,1.852,1.974s8.864-2.867,10.99-3.47c1.622-.468,1.651-.916,1.386-2.441-.391-2.254-.747-2.1-2.96-1.518-1.7.442-6.742,1.971-8.945,2.664s-2.423.7-2.322,2.79M86.28,23.863c-.872,1.391-4.536,3.914-8.719,5.571s-5.577.085-6.713-1.746-1.317-2.893-.258-4.435c.565-.835,1.192-1.67,1.835-2.492-1.581-.206-4.441-.524-6.928-1.051-3.822,3.774-7.261,7.521-9.874,10.243-.766.8-1.413,1.146-2.615-.69-1.3-2.008-1.309-2.165-.344-3.314,2.407-2.864,4.752-5.462,7.017-7.835-3-1.294-3.454-2.926-3.71-4.61-.173-1.135.26-1.221,1.046-.866.552.234,3.151,1.071,6.212,1.873,2.782-2.742,5.389-5.122,7.734-7.185C76.1,2.8,79.679.276,84.383.015c3.658-.2,5.691,1.68,5.883,4.874a4.172,4.172,0,0,1-1.52,3.481c-.928.713-1.8.331-2.267-.779-.7-1.657-2.633-1.977-6.188.082a65.71,65.71,0,0,0-10.818,8.266c1.584.319,4.463.652,6.47.89a28.17,28.17,0,0,1,8.59-6.107c5.049-2.091,6.715-.352,8.367,2.087s2.228,4.961-.612,6.358c-4.428,2.174-9.786,2.246-13.469,2.08a22.662,22.662,0,0,0-3.091,4.091c4.361-.608,7.144-1.917,9.326-2.524s2.093-.347,1.225,1.048m-3.166-6.781a34.034,34.034,0,0,0,5.692-1.052c3.54-.848,1.754-3.6-1.556-2.206a26.582,26.582,0,0,0-4.136,3.258m156.373-1.248c-.486.112-1.465.31-2.532.5-2.428.434-2.163.42-3.27-.911-2.792-.478-4.992.261-4.3,1.74.858,1.829,6.156,3.708,6.156,8.241,0,3.244-5,5.2-10.111,5.568-3.612.259-3.986-.618-5.693-2.089-1.542-1.32-2.436-2.782.112-2.319s9.107-.366,8.818-2.351c-.334-2.334-4.685-2.625-5.568-6.1-2.619.989-5.621,2-7.736,3.013a4.706,4.706,0,0,1,1.9,3.578c0,3.713-4.66,7.473-16.455,6.035-1.406-.169-1.046-.35-1.858-2.094s-.6-1.645,1.161-2.662c2.172-1.251,5.347-2.843,8.849-4.429a12.589,12.589,0,0,1-2.279-2.171c-9.117,6.339-18.572,11.705-21.081,11.705-2.1,0-3.188-2.6-3.364-4.881a64.568,64.568,0,0,0-9.734,4.578c-1.962,1.235-2.127,1.432-3.736.185-1.969-1.534-2.441-2.2-1.391-3.482s3.023-3.6,6.389-8.354c-7.2,3.02-15.222,10.1-16.617,11.5s-1.746,1.269-3.254-.473-1.578-2.054-.579-3.365a95.755,95.755,0,0,1,9.986-10.707c-7.751,5.529-20.559,14.4-22.865,15.7-2.675,1.509-2.97.982-4.534-.467-1.509-1.387-1.8-1.8-.706-3.012,1.749-1.918,5.748-6.207,10.063-10.78-7.005,4.87-19.043,11.973-21.648,13.446-2.677,1.514-3.019,1.046-4.528-.464s-1.925-2.5-.814-3.715c4.412-4.875,12.546-13.461,14.17-14.735s1.755-.636,3.027,1.51c1.159,1.975,1.507,2.319.341,3.365s-4.185,3.83-7.778,7.543c7.273-4.17,15.488-8.524,20.39-11.412-1.481.3-2.955.629-4.382.968-1.587.379-1.976-.232-2.443-1.743-.572-1.857-1.157-2.4,1.63-2.9q5.87-1.048,11.56-1.864c2.862-2.976,5.02-5.168,5.524-5.56,1.619-1.284,1.756-.64,3.023,1.5.954,1.631,1.34,2.161.808,2.874A194.138,194.138,0,0,1,198.2,5.212c2.2.15,2.551.693,3.833,2.318s2.239,2.632-.349,2.436a200.038,200.038,0,0,0-42.547,1.247c-4.779,4.635-11.867,11.583-14.284,14.07,9.943-5.7,20.214-11.9,24.183-14.1,1.044-.678,1.079-.234,2.418,1.1,1.161,1.163,1.623,1.743.925,2.555a33.72,33.72,0,0,1-2.55,2.784,28.729,28.729,0,0,1,8.016-3.715c1.193-.232,1.25-.262,2.438.957,1.168,1.186,1.168,1.218.348,3.222a37.465,37.465,0,0,1-3.489,6.728c1.707-.54,3.953-1.054,5.4-1.547,1.335-4.843,6.605-11.681,14.23-11.681,3.252,0,6.274.931,6.274,4.529,0,2.85-9.189,5.967-14.854,7.876-.472,2.971.664,2.237,2.651,1.406,2.108-.89,11.031-5.263,14.906-7.568-1.476-3.5,1.436-7.058,8.9-7.058a16.036,16.036,0,0,1,4.809.943c1.145.507,1.129.524,1.351,1.96.263,1.687-.261,2.233-1.744,1.968a30.984,30.984,0,0,0-5.1-.356c-3.539,0-3.716,1.7-.523,4.331,3.046-1.252,6.8-2.406,9.547-3.255.419-3.251,4.41-5.376,8.953-5,7.209.578,7.266.752,7.615,1.968A12.85,12.85,0,0,1,239.9,14.9c.142.782.208.782-.418.937m-50.126,4.884c8.018-3.292,11.939-5.637,9.024-6.217-2.549-.512-6.756,2.817-9.024,6.217M210.9,23.439c-2.51,1.391-6.813,3.43-8.948,4.805,7.759-.733,10.873-2.712,8.948-4.805m-87.84-4.986c1.869.071,1.823-.6.891-3.061-.812-2.137-1.016-2.307-2.184-2.293-2.267.024-5.293.153-8.617.412,2.512-2.434,4.862-4.551,6.852-6.127a119.433,119.433,0,0,1,12.927-.79c.92,1.634,1.5,1.638,3.009,1.416s5.525-.642,7.807-1.09c2.424-.481,2.528-.715,1.612-3.019-.84-2.169-.933-2.206-2.034-2.206A220.891,220.891,0,0,0,103.31,5.521c-2.311.416-1.962.841-1.062,2.66.906,1.867,1.607,1.908,2.537,1.765,1.582-.242,3.286-.556,5.117-.883-1.831,1.6-3.789,3.441-5.787,5.421-2.117.3-4.2.65-6.165,1.055-1.994.407-1.782.555-1.1,2.525.513,1.5.846,2.023,1.672,1.879.121-.021.234-.035.348-.051A150.808,150.808,0,0,0,87.893,32.867c-1.016,1.385-1.171,2.089-.266,4.609C88.7,40.46,89.115,40.6,90.389,38.93c3.674-4.835,10.7-13,17.556-20.158a125.042,125.042,0,0,1,15.12-.319" transform="translate(0 0)" fill="#d11f2e"/>
</svg>
